<svg width="16" height="16" viewBox="0 0 16 16" fill="none" xmlns="http://www.w3.org/2000/svg">
<path d="M1 4V4C1 4.55228 1.44772 5 2 5H5C6.65685 5 8 6.34315 8 8V8C8 9.65685 6.65685 11 5 11H2C1.44772 11 1 10.5523 1 10V10" stroke="black"/>
<path d="M8.13725 8H2C1.44772 8 1 7.55228 1 7V7" stroke="black"/>
<path d="M9.83821 7.26758L8 8L9.83821 8.73242C10.2819 8.9092 10.7551 9 11.2327 9H14C14.5522 9 15 8.55228 15 8C15 7.44772 14.5522 7 14 7H11.2327C10.7551 7 10.2819 7.0908 9.83821 7.26758Z" stroke="black"/>
</svg>
