<svg width="24" height="24" viewBox="0 0 24 24" fill="none" xmlns="http://www.w3.org/2000/svg">
<path d="M2 6V6C2 7.10457 2.89543 8 4 8H8C10.2091 8 12 9.79086 12 12V14C12 16.2091 10.2091 18 8 18H4C2.89543 18 2 17.1046 2 16V16" stroke="black"/>
<path d="M12.1373 13H4C2.89543 13 2 12.1046 2 11V11" stroke="black"/>
<path d="M13.0866 12.0241L12 13L13.0866 13.9759C13.8208 14.6353 14.7727 15 15.7594 15H21C22.1046 15 23 14.1046 23 13C23 11.8954 22.1046 11 21 11H15.7594C14.7727 11 13.8208 11.3647 13.0866 12.0241Z" stroke="black"/>
</svg>
