<svg width="24" height="24" viewBox="0 0 24 24" fill="none" xmlns="http://www.w3.org/2000/svg">
<path d="M14.6816 16.2432C14.6848 16.2399 14.6879 16.2366 14.6909 16.2334C17.2042 16.6909 18.9288 17.7492 19.8125 18.7842C20.2728 19.3234 20.4784 19.823 20.4984 20.206C20.5168 20.56 20.3825 20.8423 20.0628 21.0446C19.8635 21.1707 19.4999 21.3063 18.9642 21.4323C18.4403 21.5554 17.7931 21.6603 17.0576 21.745C15.5875 21.9144 13.7968 21.9999 12 21.9999C10.2031 21.9999 8.41248 21.9144 6.94236 21.745C6.20688 21.6603 5.55964 21.5554 5.03576 21.4323C4.50005 21.3063 4.13651 21.1707 3.93721 21.0446C3.61748 20.8423 3.48319 20.56 3.50164 20.2061C3.5216 19.823 3.72722 19.3234 4.18754 18.7842C5.07123 17.7492 6.79576 16.6909 9.30909 16.2334C9.31217 16.2366 9.31527 16.2399 9.31841 16.2432C9.45037 16.3811 9.64286 16.564 9.88837 16.7473C10.3744 17.1101 11.1029 17.4999 11.9999 17.5C12.897 17.5001 13.6256 17.1103 14.1116 16.7474C14.3572 16.564 14.5497 16.3811 14.6816 16.2432Z" stroke="black" stroke-linecap="round"/>
<path d="M16.4999 6C17 11 14.7614 14.5 11.9999 14.5C9.2385 14.5 6.99999 11 7.49993 6" stroke="black"/>
<path d="M17 6C17 3.79086 15 2 12 2C9 2 7 3.79086 7 6" stroke="black"/>
<path d="M7 8L5.10346 7.62069C4.58459 7.51692 4.56141 6.78362 5.07269 6.64728L7.5 6C7.5 6 9.33333 5 12 5C14.6667 5 16.5 6 16.5 6L18.9273 6.64728C19.4386 6.78362 19.4154 7.51692 18.8965 7.62069L17 8" stroke="black" stroke-linecap="round" stroke-linejoin="round"/>
<mask id="path-5-inside-1_602_338" fill="white">
<path d="M11 8C11 7.73478 10.8946 7.48043 10.7071 7.29289C10.5196 7.10536 10.2652 7 10 7C9.73478 7 9.48043 7.10536 9.29289 7.29289C9.10536 7.48043 9 7.73478 9 8L10 8H11Z"/>
</mask>
<path d="M11 8C11 7.73478 10.8946 7.48043 10.7071 7.29289C10.5196 7.10536 10.2652 7 10 7C9.73478 7 9.48043 7.10536 9.29289 7.29289C9.10536 7.48043 9 7.73478 9 8L10 8H11Z" stroke="black" stroke-width="2.8" mask="url(#path-5-inside-1_602_338)"/>
<mask id="path-6-inside-2_602_338" fill="white">
<path d="M15 8C15 7.73478 14.8946 7.48043 14.7071 7.29289C14.5196 7.10536 14.2652 7 14 7C13.7348 7 13.4804 7.10536 13.2929 7.29289C13.1054 7.48043 13 7.73478 13 8L14 8H15Z"/>
</mask>
<path d="M15 8C15 7.73478 14.8946 7.48043 14.7071 7.29289C14.5196 7.10536 14.2652 7 14 7C13.7348 7 13.4804 7.10536 13.2929 7.29289C13.1054 7.48043 13 7.73478 13 8L14 8H15Z" stroke="black" stroke-width="2.8" mask="url(#path-6-inside-2_602_338)"/>
</svg>
