<svg width="16" height="16" viewBox="0 0 16 16" fill="none" xmlns="http://www.w3.org/2000/svg">
<path d="M11.5 5.5C11.5 7.76613 9.87926 9.5 8 9.5C6.12074 9.5 4.5 7.76613 4.5 5.5C4.5 3.23387 6.12074 1.5 8 1.5C9.87926 1.5 11.5 3.23387 11.5 5.5Z" stroke="black"/>
<path d="M9.52601 10.8661C9.6625 10.7538 9.77526 10.642 9.86193 10.5477C11.4395 10.8867 12.5148 11.6262 13.0666 12.3383C13.3608 12.7181 13.4869 13.0633 13.499 13.3195C13.5102 13.556 13.4291 13.7185 13.2675 13.8312C13.1607 13.9056 12.944 13.9985 12.5937 14.0892C12.255 14.177 11.8322 14.2527 11.3469 14.3143C10.3771 14.4374 9.19192 14.5 7.99998 14.5C6.80804 14.5 5.62288 14.4374 4.65306 14.3143C4.16773 14.2527 3.74496 14.177 3.40628 14.0892C3.05596 13.9985 2.83924 13.9056 2.73254 13.8312C2.57092 13.7185 2.4898 13.556 2.50099 13.3195C2.5131 13.0633 2.63916 12.7181 2.93343 12.3383C3.48517 11.6262 4.56053 10.8867 6.1381 10.5477C6.22477 10.642 6.33753 10.7537 6.47401 10.866C6.81134 11.1435 7.33781 11.4598 7.99993 11.4598C8.66214 11.4599 9.18867 11.1436 9.52601 10.8661Z" stroke="black" stroke-linecap="round"/>
<path d="M4.5 6L2 5.2L4.5 4.8C4.5 4.8 6 4 8 4C10 4 11.5 4.8 11.5 4.8L14 5.2L11.5 6" stroke="black" stroke-linecap="round" stroke-linejoin="round"/>
<circle cx="6.5" cy="6" r="0.3" stroke="black" stroke-width="0.4"/>
<circle cx="9.5" cy="6" r="0.3" stroke="black" stroke-width="0.4"/>
</svg>
