<svg width="31" height="31" viewBox="0 0 31 31" fill="none" xmlns="http://www.w3.org/2000/svg">
<path d="M3 8V8C3 9.04039 3.8434 9.88379 4.88379 9.88379H12C14.2091 9.88379 16 11.6747 16 13.8838V18.8838C16 21.0929 14.2091 22.8838 12 22.8838H4.88379C3.8434 22.8838 3 22.0404 3 21V21" stroke="black"/>
<path d="M16 16.3838H5.38379C4.06726 16.3838 3 15.3165 3 14V14M16 16.3838L17.55 15.4538C18.1716 15.0808 18.883 14.8838 19.6079 14.8838H26.5C27.6046 14.8838 28.5 15.7792 28.5 16.8838V16.8838C28.5 17.9884 27.6046 18.8838 26.5 18.8838H20.1569C19.096 18.8838 18.0786 18.4624 17.3284 17.7122L16 16.3838Z" stroke="black"/>
</svg>
